<svg width="256" height="256" viewBox="0 0 256 256" fill="none" xmlns="http://www.w3.org/2000/svg">
  <defs>
    <linearGradient id="dalmarGradient" x1="0%" y1="0%" x2="100%" y2="100%">
      <stop offset="0%" stop-color="#38bdf8" />
      <stop offset="100%" stop-color="#1d4ed8" />
    </linearGradient>
  </defs>
  
  <path d="M60 40C48.9543 40 40 48.9543 40 60V196C40 207.046 48.9543 216 60 216H130C177.496 216 216 177.496 216 130C216 82.5035 177.496 40 130 40H60Z" 
        fill="url(#dalmarGradient)" />
  
  <path d="M85 75H125C155.376 75 180 99.6243 180 130C180 160.376 155.376 185 125 185H85V75Z" 
        fill="#0f172a" />
        
  <rect x="55" y="90" width="15" height="6" rx="3" fill="white" fill-opacity="0.6" />
  <rect x="55" y="110" width="25" height="6" rx="3" fill="white" fill-opacity="0.8" />
  <rect x="55" y="130" width="15" height="6" rx="3" fill="white" fill-opacity="0.6" />
</svg>
